<?xml version="1.0" standalone="no"?>
<!DOCTYPE svg PUBLIC "-//W3C//DTD SVG 20010904//EN"
 "http://www.w3.org/TR/2001/REC-SVG-20010904/DTD/svg10.dtd">
<svg version="1.0" xmlns="http://www.w3.org/2000/svg"
 width="768.000000pt" height="768.000000pt" viewBox="0 0 768.000000 768.000000"
 preserveAspectRatio="xMidYMid meet">
<metadata>
Created by potrace 1.14, written by Peter Selinger 2001-2017
</metadata>
<g transform="translate(0.000000,768.000000) scale(0.100000,-0.100000)"
fill="#000000" stroke="none">
<path d="M4110 6985 c-41 -7 -122 -29 -180 -48 -236 -78 -656 -319 -806 -462
-86 -81 -82 -128 4 -64 62 45 51 21 -23 -52 -62 -61 -75 -79 -56 -79 4 0 62
35 127 79 278 183 387 242 569 308 150 55 470 114 610 112 l70 -1 -56 -13
c-73 -18 -239 -91 -348 -154 -48 -27 -106 -59 -131 -71 -25 -13 -78 -45 -118
-72 -110 -74 -109 -52 1 30 66 49 97 78 97 92 0 15 -7 20 -27 20 -55 -1 -254
-131 -365 -238 -43 -42 -80 -73 -83 -70 -5 5 49 57 158 156 27 24 46 47 42 50
-3 4 -32 -7 -63 -23 -57 -30 -201 -165 -298 -279 l-50 -59 -54 25 c-159 74
-326 107 -590 115 -213 7 -316 -5 -463 -54 -104 -35 -144 -59 -69 -43 48 11
445 33 497 28 l40 -4 -35 -6 c-19 -4 -91 -12 -160 -18 -227 -22 -436 -69 -628
-141 -57 -21 -106 -39 -108 -39 -2 0 -4 6 -4 13 0 8 11 20 25 27 14 8 33 28
41 46 18 38 280 297 379 375 115 90 291 211 430 294 140 84 167 103 160 116
-18 28 -325 -125 -565 -281 -102 -66 -192 -120 -200 -120 -8 0 12 24 44 53 52
47 58 56 52 80 -4 17 -15 29 -30 33 -20 5 -35 -6 -94 -68 -210 -222 -377 -425
-527 -643 -68 -99 -103 -138 -208 -234 -51 -46 -141 -130 -202 -186 -60 -56
-147 -134 -193 -175 -112 -97 -244 -250 -286 -330 -70 -134 -101 -286 -99
-485 1 -155 18 -253 78 -465 38 -132 64 -194 80 -191 9 1 9 27 -1 191 l-6 95
40 -60 c106 -160 237 -280 408 -375 163 -90 304 -135 564 -179 149 -25 234
-57 299 -111 28 -24 50 -44 49 -45 -2 -1 -115 2 -253 6 -275 9 -375 19 -540
54 -130 28 -188 46 -265 86 -56 28 -110 38 -110 20 0 -16 96 -80 174 -116 90
-42 224 -79 366 -101 79 -13 173 -17 378 -17 l273 1 -5 -287 c-6 -413 -54
-1000 -92 -1128 -16 -52 -23 -63 -41 -63 -38 0 -93 -103 -93 -173 0 -35 8 -52
47 -101 l46 -59 -6 -172 c-7 -203 -7 -203 92 -248 248 -112 730 -227 1176
-279 147 -17 697 -17 880 0 227 22 550 72 980 152 218 41 348 68 669 137 l29
6 -5 -66 c-3 -58 -2 -67 13 -67 30 0 79 66 79 108 0 53 9 60 70 64 51 3 55 5
55 28 0 21 -7 27 -48 40 l-48 15 5 40 c15 103 36 334 34 371 -1 28 5 49 21 71
29 38 25 68 -9 68 -23 0 -25 5 -30 54 -7 61 -37 96 -94 106 l-33 7 -7 181 c-7
178 5 618 24 887 6 74 13 206 17 294 3 94 11 162 17 167 6 5 30 22 52 38 23
16 48 43 55 60 14 30 14 31 29 11 38 -51 137 -32 313 60 199 103 211 109 271
135 32 14 60 24 62 23 1 -2 -40 -50 -92 -108 -133 -148 -187 -221 -174 -234 7
-7 48 28 138 117 161 160 203 192 431 329 349 209 429 268 511 378 92 125 160
270 206 440 27 100 25 292 -4 393 -45 156 -123 281 -256 410 -139 135 -385
308 -489 345 -27 9 -54 26 -59 37 -34 63 -165 198 -268 276 -189 141 -484 253
-767 290 -78 11 -93 15 -93 31 0 19 -139 143 -244 216 -163 116 -498 238 -739
271 -103 14 -293 12 -387 -4z m225 -55 c13 -6 -10 -9 -70 -9 -49 -1 -128 -8
-174 -16 -97 -17 -122 -13 -34 6 120 25 244 34 278 19z m585 -247 c51 -23 84
-57 157 -158 63 -87 73 -118 73 -216 0 -77 1 -79 26 -85 16 -4 49 0 81 10 30
10 79 20 107 23 51 5 53 4 64 -23 29 -71 42 -282 23 -367 -11 -44 3 -56 41
-37 100 52 142 193 103 345 -9 32 -21 65 -27 72 -19 23 48 15 192 -22 145 -37
269 -92 377 -167 144 -100 338 -255 365 -293 75 -101 138 -277 138 -380 0 -66
-40 -250 -75 -345 -9 -25 -26 -73 -38 -107 -11 -35 -24 -63 -28 -63 -4 0 4 33
18 73 32 92 93 314 93 339 0 13 -6 18 -17 16 -12 -2 -28 -40 -58 -138 -64
-213 -70 -225 -219 -428 -53 -71 -215 -234 -306 -308 -128 -103 -266 -203
-275 -200 -29 8 -12 37 43 75 32 22 83 61 113 88 30 27 86 75 124 107 162 137
337 341 400 466 49 99 102 239 113 298 8 48 8 52 -10 52 -10 0 -23 -10 -28
-22 -54 -135 -85 -199 -140 -287 -124 -199 -393 -474 -601 -614 -63 -42 -126
-86 -141 -97 -16 -12 -28 -17 -28 -11 0 5 5 13 10 16 10 6 148 173 188 228 12
17 46 56 75 86 52 55 97 113 97 125 0 3 -11 6 -25 6 -16 0 -45 -18 -80 -50
-75 -67 -103 -70 -45 -3 37 42 42 106 10 123 -26 14 -37 7 -45 -29 -7 -35
-142 -197 -215 -261 -28 -25 -78 -61 -109 -80 -64 -39 -196 -88 -207 -77 -4 4
8 24 27 45 59 63 101 122 87 122 -7 0 -56 -47 -108 -104 -89 -98 -123 -126
-137 -112 -3 3 13 26 36 51 22 24 41 50 41 56 0 16 -56 3 -133 -33 -66 -31
-68 -32 -129 -19 -35 7 -66 15 -71 18 -4 2 8 23 28 46 19 22 35 44 35 49 0 12
-40 -10 -73 -40 l-28 -26 -43 24 c-101 54 -102 40 16 186 58 71 138 174 178
229 86 117 207 260 370 435 159 172 230 258 224 273 -2 7 -13 18 -24 25 -17
11 -24 6 -62 -46 -92 -125 -392 -453 -690 -754 -273 -276 -338 -336 -338 -313
0 2 18 28 40 57 40 53 49 78 29 78 -6 0 -47 -35 -92 -78 -94 -89 -143 -128
-208 -165 -77 -45 -75 -31 9 56 44 45 97 102 118 127 21 25 128 136 237 248
109 112 254 267 323 345 68 78 145 158 169 177 41 32 63 62 33 44 -68 -41
-232 -167 -284 -219 -54 -53 -397 -379 -477 -453 -43 -39 -97 -84 -120 -100
-59 -40 -232 -132 -248 -132 -7 0 9 24 37 53 28 28 76 89 107 135 102 150 319
407 572 677 182 194 491 542 509 573 4 6 4 17 1 23 -20 32 -702 -667 -1026
-1052 -128 -151 -159 -182 -205 -203 -156 -73 -286 -141 -273 -144 9 -1 72 20
141 48 113 45 188 62 188 42 0 -16 -227 -207 -257 -216 -29 -9 -292 -66 -304
-66 -5 0 8 22 31 49 48 57 51 90 8 105 -25 9 -33 4 -95 -56 -88 -84 -100 -90
-149 -76 -21 7 -41 13 -43 15 -3 2 20 28 49 58 30 30 50 55 44 55 -6 0 -21
-12 -35 -26 -34 -36 -109 -84 -133 -84 -11 0 -49 9 -85 21 -36 12 -72 23 -80
25 -14 4 13 37 141 170 37 40 68 76 68 81 0 5 13 24 30 43 46 55 37 71 -14 23
-16 -16 -39 -35 -51 -43 -12 -8 -69 -59 -126 -114 -146 -138 -139 -135 -191
-95 -65 50 -108 92 -108 104 0 6 39 63 86 126 47 63 90 122 95 132 13 23 -6
23 -23 -1 -13 -17 -140 -112 -151 -112 -3 0 8 25 25 55 16 30 25 55 20 55 -10
0 -81 -81 -162 -185 -73 -94 -96 -120 -157 -178 -64 -60 -132 -111 -139 -104
-3 3 6 24 21 47 33 52 146 302 140 308 -7 7 -1 16 -114 -158 -86 -130 -102
-160 -99 -187 2 -18 2 -33 -2 -33 -3 0 -34 -9 -71 -18 -55 -16 -74 -17 -122
-7 -31 6 -59 14 -62 17 -12 12 226 298 494 593 20 22 72 83 116 135 158 191
198 235 313 343 75 70 83 84 23 42 -51 -35 -474 -464 -617 -624 -182 -205
-304 -342 -362 -410 -29 -33 -57 -61 -63 -61 -15 0 -123 91 -130 110 -10 23
14 73 59 122 21 24 65 77 97 118 66 84 263 305 429 480 135 143 144 156 125
176 -13 12 -22 8 -69 -32 -216 -184 -668 -687 -702 -781 -7 -18 -15 -33 -18
-33 -3 0 -16 21 -29 48 -12 26 -36 68 -52 94 -24 38 -69 139 -69 157 0 2 14
-11 32 -28 24 -23 41 -31 69 -31 56 0 62 5 141 98 40 48 75 89 78 92 3 3 31
37 62 75 30 39 100 120 154 180 54 61 145 162 200 226 56 63 177 196 270 295
93 99 191 204 218 233 l49 53 86 -18 c47 -9 88 -19 90 -20 4 -3 -62 -85 -121
-149 -21 -22 -43 -52 -49 -67 -6 -16 -15 -28 -20 -28 -5 0 -9 -9 -9 -20 0 -11
7 -20 15 -20 16 0 188 151 243 214 32 36 33 37 70 25 49 -16 144 -64 211 -106
81 -52 98 -56 121 -33 31 31 25 59 -22 102 -50 46 -141 103 -180 113 -16 4
-28 10 -28 14 0 4 78 56 173 116 94 60 242 155 327 211 299 196 488 277 796
345 122 26 328 22 394 -8z m242 -115 c13 -13 37 -32 52 -43 27 -19 142 -164
135 -169 -8 -5 -91 -27 -94 -24 -1 2 -12 32 -24 68 -12 36 -37 89 -55 118 -46
69 -48 72 -43 72 2 0 15 -10 29 -22z m-2285 -406 c31 -18 -8 -25 -73 -13 -32
6 -75 11 -96 11 -22 0 -38 5 -38 11 0 15 179 6 207 -9z m207 -52 c27 -10 35
-35 14 -42 -6 -2 -27 4 -47 14 -19 10 -48 18 -63 18 -15 0 -30 5 -33 10 -8 13
95 13 129 0z m-731 -76 c3 -3 -22 -29 -56 -56 -165 -134 -697 -700 -697 -740
0 -15 -59 63 -60 79 0 6 43 59 95 118 52 58 95 111 95 116 0 24 -32 2 -118
-81 -51 -50 -97 -88 -103 -85 -37 24 29 111 222 291 299 280 326 299 475 333
55 12 104 24 109 26 17 6 31 5 38 -1z m383 -12 c11 -6 -23 -43 -132 -147 -184
-175 -450 -461 -738 -795 -59 -69 -135 -147 -167 -173 l-59 -48 -58 48 c-31
26 -59 49 -61 50 -2 1 2 9 9 18 11 13 8 24 -15 66 -15 28 -25 53 -22 56 3 2
11 -6 18 -19 33 -62 135 -168 163 -168 16 0 1 34 -41 93 -27 36 -56 80 -65 97
-20 35 -64 56 -83 40 -16 -13 -45 -2 -45 17 0 11 24 68 34 80 1 2 30 -24 64
-57 42 -41 69 -60 87 -60 28 0 28 0 16 33 -9 22 -3 32 52 88 34 35 94 100 132
144 84 96 516 531 600 604 l60 53 118 -6 c65 -3 125 -10 133 -14z m-1026 -91
c0 -5 -7 -14 -15 -21 -13 -10 -15 -9 -15 9 0 12 6 21 15 21 8 0 15 -4 15 -9z
m140 -56 c0 -6 -60 -60 -190 -172 -58 -50 -121 -107 -139 -127 -19 -20 -39
-36 -43 -36 -35 0 49 89 183 196 62 49 126 101 143 116 29 26 46 34 46 23z
m4957 -162 c187 -135 443 -403 385 -403 -4 0 -33 36 -65 80 -61 84 -129 140
-171 140 -23 0 -26 -4 -26 -33 0 -35 18 -64 92 -149 58 -66 115 -160 128 -210
17 -62 -41 -289 -107 -423 -38 -75 -152 -265 -187 -309 -43 -55 -44 -28 -2 36
39 58 52 103 42 143 -8 30 -36 34 -36 4 0 -38 -77 -179 -98 -179 -11 0 -132
114 -132 125 0 2 22 30 50 62 46 54 61 83 42 83 -4 0 -34 -27 -65 -60 -32 -33
-62 -60 -66 -60 -5 0 -27 20 -50 45 l-42 46 40 57 c22 31 58 104 80 162 37 99
90 331 92 403 0 17 4 41 8 52 7 18 9 16 15 -12 8 -34 3 -78 -20 -207 -8 -44
-12 -82 -9 -85 3 -3 21 3 40 13 48 26 67 79 73 203 7 158 -36 324 -132 508
-17 33 -33 64 -35 70 -5 12 31 -12 156 -102z m-5436 -219 c-11 -27 -25 -69
-32 -94 -6 -25 -14 -39 -16 -32 -7 18 15 97 39 145 27 54 32 41 9 -19z m-187
-101 c-14 -49 -32 -124 -40 -168 -9 -44 -18 -90 -20 -103 -8 -39 -24 -14 -24
36 0 52 14 107 54 222 15 41 29 81 31 88 2 6 9 12 14 12 5 0 -2 -39 -15 -87z
m254 -68 c-4 -51 -12 -75 -22 -64 -8 9 7 119 16 119 6 0 9 -22 6 -55z m-427
-9 c-16 -17 -25 -43 -30 -85 -7 -56 -21 -96 -21 -58 0 10 -6 17 -14 17 -16 0
-147 -142 -258 -280 -124 -155 -134 -158 -71 -28 107 222 190 337 286 394 27
16 65 39 85 51 44 26 54 22 23 -11z m263 -125 c6 -111 38 -388 52 -456 6 -27
3 -25 -30 20 -19 28 -43 62 -51 77 -43 77 -58 248 -31 344 8 27 20 68 26 92 6
23 14 42 19 42 4 0 11 -54 15 -119z m-279 -227 c6 -28 3 -33 -28 -53 -19 -12
-63 -58 -98 -103 -35 -45 -76 -96 -92 -114 -42 -49 -146 -186 -150 -198 -6
-15 -10 -9 -44 66 l-31 66 25 24 c14 12 40 41 57 64 30 40 204 240 292 337 24
26 45 53 46 60 0 6 5 -17 9 -53 4 -36 11 -79 14 -96z m6224 -98 c-16 -217 -81
-382 -211 -538 -70 -83 -73 -86 -81 -63 -5 14 -15 25 -23 25 -22 0 -17 32 14
77 15 23 66 99 114 171 123 184 152 247 179 390 6 34 13 61 14 60 2 -2 -1 -57
-6 -122z m-6729 -21 c-22 -65 -40 -127 -40 -137 0 -10 -4 -18 -10 -18 -15 0
-12 20 11 96 22 72 70 187 75 181 2 -2 -15 -56 -36 -122z m614 -92 c26 -47 27
-54 16 -90 -7 -21 -16 -42 -20 -48 -4 -5 -13 -26 -19 -45 -22 -71 -212 -391
-230 -389 -3 0 -26 25 -49 55 l-44 55 75 92 c119 147 188 248 185 271 -4 25
-42 34 -64 15 -16 -13 -209 -270 -230 -305 -10 -17 -14 -14 -42 25 l-32 44 52
56 c45 47 283 334 312 376 11 15 43 -25 90 -112z m425 -62 c18 -51 31 -97 29
-103 -2 -6 -19 12 -36 39 -43 66 -77 224 -54 247 4 4 12 -14 18 -41 6 -27 25
-91 43 -142z m-281 -127 c118 -146 139 -176 124 -181 -19 -7 -49 -41 -93 -105
-22 -32 -45 -58 -51 -58 -8 0 -67 31 -87 46 -2 2 14 27 37 56 79 104 118 178
94 178 -8 0 -126 -136 -185 -214 -21 -28 -57 -84 -79 -124 l-41 -74 -29 30
-30 29 66 100 c101 154 156 262 156 307 0 49 20 117 32 110 5 -3 44 -48 86
-100z m279 -137 c46 -62 51 -93 6 -42 -42 49 -83 117 -83 139 1 17 4 16 17 -9
9 -16 36 -56 60 -88z m1073 103 c0 -30 -140 -246 -239 -370 -33 -41 -74 -99
-92 -128 -22 -38 -34 -51 -42 -43 -6 6 -24 11 -39 11 -15 0 -28 3 -28 6 0 12
25 50 69 109 26 33 62 84 81 113 33 50 37 53 73 50 41 -4 48 5 17 24 -11 7
-20 18 -20 24 0 6 29 34 64 63 35 28 81 74 102 101 37 49 54 61 54 40z m3891
-32 c21 -23 39 -45 39 -48 0 -4 -15 -24 -34 -46 l-33 -38 -42 41 -41 42 32 46
c17 25 34 45 36 45 2 0 21 -19 43 -42z m-3765 -87 c25 -17 59 -33 75 -36 l30
-7 -43 -38 c-24 -22 -48 -39 -53 -40 -6 0 -32 22 -59 49 l-48 49 18 26 c11 14
22 26 26 26 4 0 28 -13 54 -29z m1386 14 c-69 -49 -252 -112 -212 -73 8 8 41
22 73 32 31 9 76 26 100 36 51 24 69 26 39 5z m1442 -54 c-28 -37 -43 -49 -56
-45 -11 3 -42 -12 -84 -40 -159 -110 -257 -136 -344 -95 -58 28 -63 39 -17 39
17 0 73 7 122 15 72 11 112 25 200 69 61 30 133 70 160 89 28 19 51 31 53 26
2 -4 -14 -31 -34 -58z m1075 3 c34 -31 61 -60 61 -65 0 -6 -18 -27 -40 -48
l-41 -39 -54 58 c-30 31 -55 60 -55 64 0 12 52 86 61 86 4 0 35 -25 68 -56z
m-1944 14 l67 -31 -23 -19 c-19 -15 -339 -178 -339 -173 0 1 26 28 58 61 31
33 82 89 112 126 30 37 56 68 56 68 1 0 32 -14 69 -32z m1516 5 c-14 -28 -92
-113 -102 -113 -23 0 -5 29 48 77 32 29 59 53 61 53 1 0 -2 -8 -7 -17z m-4706
-107 c16 -12 15 -16 -18 -59 -19 -26 -50 -64 -68 -86 l-33 -39 -43 36 c-24 20
-43 41 -43 48 0 6 22 41 50 78 27 37 52 76 55 87 6 17 10 15 45 -17 21 -19 46
-41 55 -48z m4870 44 l40 -39 -85 -89 c-47 -49 -87 -89 -90 -88 -3 1 -25 22
-48 47 l-43 47 78 79 c43 44 85 80 93 81 8 0 33 -17 55 -38z m-5716 -38 c11
-21 8 -42 -7 -42 -6 0 -22 38 -39 95 -5 17 -2 16 14 -5 11 -14 25 -35 32 -48z
m1199 -17 c5 -4 -31 -75 -38 -75 -7 0 -90 141 -90 153 0 4 99 -56 128 -78z
m2172 49 c0 -3 -28 -37 -62 -75 -49 -53 -71 -70 -98 -75 -19 -3 -66 -14 -104
-25 -37 -11 -70 -18 -73 -16 -8 9 130 100 191 126 34 15 77 37 96 49 35 22 50
27 50 16z m801 -14 c24 -11 58 -20 74 -21 l30 -1 -36 -12 c-21 -6 -46 -19 -56
-28 -23 -21 -43 -23 -66 -5 -14 10 -15 17 -5 50 6 20 12 37 14 37 1 0 21 -9
45 -20z m-1816 -11 c5 -6 4 -9 -4 -9 -7 0 -29 -13 -48 -30 -33 -29 -35 -30
-70 -15 -19 8 -37 15 -39 15 -10 0 -2 25 13 42 15 17 26 19 78 13 33 -4 64
-11 70 -16z m-370 -39 l49 -50 -24 -32 c-13 -18 -56 -70 -94 -115 l-71 -83
-72 0 -72 0 37 58 c54 84 186 271 192 271 3 1 28 -21 55 -49z m-552 16 c20 0
37 -1 37 -3 0 -6 -54 -88 -83 -126 -21 -27 -27 -41 -19 -49 22 -22 61 3 126
82 61 74 101 108 112 97 7 -7 -160 -257 -172 -257 -16 0 -123 56 -155 81 -53
42 -63 62 -46 94 l13 26 32 -41 c18 -22 39 -40 47 -40 21 0 19 46 -5 99 -11
24 -20 45 -20 48 0 3 21 2 48 -3 26 -5 64 -8 85 -8z m1613 -9 c-16 -12 -57
-43 -90 -69 -103 -81 -155 -101 -273 -106 -62 -3 -103 -1 -103 5 0 5 12 20 26
34 15 13 39 41 54 62 l28 37 89 5 c48 2 113 11 143 20 90 27 114 33 135 33 17
1 16 -2 -9 -21z m3084 -11 c0 -15 -86 -79 -100 -74 -5 2 8 24 31 50 38 44 69
55 69 24z m-3569 -6 l40 0 -20 -27 c-59 -80 -51 -76 -120 -62 -34 6 -60 15
-59 19 7 19 93 80 105 75 8 -3 33 -5 54 -5z m3296 -49 l59 -58 -51 -38 c-27
-20 -73 -49 -101 -62 -50 -25 -51 -25 -90 -8 -50 24 -49 22 -33 38 8 8 46 53
84 100 39 48 71 87 72 87 1 0 28 -26 60 -59z m-475 -10 c-12 -8 -171 -189
-204 -231 l-26 -35 -46 25 c-25 13 -46 27 -46 30 0 3 16 12 36 19 47 17 160
124 204 194 l35 55 28 -26 c15 -14 23 -28 19 -31z m-1742 -7 c-30 -30 -64 -60
-75 -66 -11 -6 9 19 45 56 35 36 69 66 74 66 6 0 -14 -25 -44 -56z m-3266
-272 c98 -82 129 -113 122 -120 -16 -16 -327 245 -406 339 -48 58 -58 78 -43
92 3 4 58 -47 121 -113 63 -67 156 -155 206 -198z m563 286 l21 -23 -60 -92
-61 -92 -28 22 c-16 11 -29 27 -29 35 0 14 120 171 131 172 3 0 15 -10 26 -22z
m5293 3 c22 -6 19 -10 -40 -47 -36 -22 -83 -47 -105 -56 -22 -9 -65 -26 -95
-38 -30 -12 -62 -24 -70 -28 -9 -4 -6 5 8 22 12 16 22 35 22 42 0 10 13 14 38
14 29 0 59 13 118 49 84 52 86 53 124 42z m-5725 -38 c36 -36 36 -37 17 -52
-10 -9 -33 -37 -51 -63 -18 -27 -34 -48 -36 -48 -2 0 -20 14 -39 31 l-35 30
36 47 c20 26 40 57 46 70 14 29 19 28 62 -15z m4642 -40 c-42 -42 -80 -73 -83
-70 -3 3 -3 11 1 16 9 16 144 131 153 131 4 0 -28 -35 -71 -77z m-2963 42 c18
-14 42 -25 54 -25 16 0 10 -11 -36 -57 -56 -58 -57 -58 -125 -63 -38 -3 -70
-3 -72 1 -4 6 102 149 119 161 17 12 25 10 60 -17z m1741 -41 c-46 -41 -123
-89 -131 -81 -7 6 145 117 160 117 6 -1 -7 -17 -29 -36z m210 10 c68 -9 73
-14 35 -34 -27 -14 -160 -50 -184 -50 -2 0 10 23 27 50 28 44 35 50 57 44 14
-3 43 -8 65 -10z m1324 -20 c13 -14 38 -32 55 -41 l30 -16 -79 -76 c-73 -70
-86 -79 -158 -100 -42 -12 -81 -21 -87 -19 -5 2 27 48 71 103 45 55 93 117
107 138 13 20 27 37 31 37 3 0 17 -12 30 -26z m-4419 -1 c0 -11 -102 -157
-123 -175 -24 -22 -43 -13 -25 12 7 9 37 52 66 94 29 42 59 76 67 76 8 0 15
-3 15 -7z m3827 -10 c-17 -20 -77 -57 -77 -49 0 5 81 65 89 66 2 0 -3 -8 -12
-17z m-392 -24 c-33 -17 -69 -39 -80 -49 -16 -15 -52 -19 -84 -11 -13 3 83 57
129 72 86 27 101 22 35 -12z m-3855 -102 c-22 -29 -40 -55 -40 -59 0 -17 -27
-6 -58 23 -36 34 -36 33 28 106 l35 39 37 -28 37 -29 -39 -52z m1778 107 c53
-15 13 -39 -78 -48 l-65 -7 33 30 c32 31 62 37 110 25z m2281 -25 c-25 -35
-38 -42 -71 -37 -20 3 -17 7 27 35 63 40 72 41 44 2z m-3564 -5 c25 -16 25
-16 6 -43 -10 -14 -33 -54 -51 -89 -35 -66 -58 -86 -84 -76 -22 9 -20 19 15
70 17 25 41 69 55 99 13 30 26 55 29 55 3 0 17 -7 30 -16z m1993 -62 c-31 -20
-94 -69 -140 -108 -46 -38 -104 -86 -130 -105 -25 -19 -86 -72 -135 -116 -48
-45 -101 -91 -116 -103 -15 -12 -26 -25 -22 -28 3 -3 15 4 28 15 22 20 130 84
112 66 -19 -19 -135 -93 -144 -93 -12 0 -450 -421 -689 -663 -170 -171 -174
-174 -183 -148 -23 58 5 109 139 261 180 203 381 388 472 435 93 47 234 155
410 314 63 57 142 124 175 149 33 25 79 63 103 83 37 32 131 76 167 78 6 0
-16 -16 -47 -37z m2502 -3 c0 -5 -8 -9 -17 -9 -10 0 -27 -7 -37 -15 -39 -29
-45 -14 -8 19 27 25 40 32 49 24 7 -6 13 -14 13 -19z m-4321 -29 c0 -10 -127
-90 -143 -90 -20 0 -16 20 20 92 l24 47 50 -22 c27 -12 49 -24 49 -27z m-547
-86 c-20 -23 -41 -43 -46 -43 -14 -1 -56 40 -56 56 0 7 16 31 37 53 l36 41 33
-32 33 -32 -37 -43z m2049 24 c-63 -85 -244 -267 -332 -333 -50 -37 -92 -65
-95 -62 -3 3 25 31 62 63 138 120 364 337 369 355 4 11 11 19 17 19 5 0 -4
-19 -21 -42z m1289 26 c0 -8 -10 -14 -23 -14 -13 0 -32 -6 -42 -14 -16 -12
-17 -16 -6 -30 7 -9 27 -16 43 -16 33 0 92 -23 103 -40 5 -8 -3 -9 -29 -5 -29
6 -36 4 -36 -9 0 -21 39 -36 91 -36 21 0 39 -3 39 -7 0 -5 -21 -16 -46 -27
-54 -22 -62 -37 -40 -71 16 -24 21 -25 121 -25 98 0 132 -9 102 -27 -25 -15
-47 -57 -47 -90 0 -48 20 -42 78 22 49 53 51 54 65 35 13 -18 7 -27 -85 -120
-72 -73 -98 -106 -98 -125 0 -14 6 -25 14 -25 7 0 48 28 91 63 119 95 126 100
131 94 9 -9 -16 -47 -80 -121 -34 -39 -82 -98 -106 -131 -23 -33 -69 -89 -100
-125 -89 -103 -143 -179 -137 -194 9 -22 47 -7 58 23 6 14 34 50 63 81 48 51
215 249 278 330 l27 34 -1 -40 c0 -23 2 -54 6 -70 6 -32 -20 -65 -235 -296
-91 -97 -159 -184 -159 -203 0 -21 79 48 227 198 l172 174 7 -43 c7 -49 7 -49
-91 -159 -138 -155 -151 -171 -192 -220 -22 -27 -48 -65 -57 -82 -35 -68 13
-31 172 132 88 91 165 165 171 165 6 0 11 -11 11 -24 0 -16 -41 -72 -129 -174
-187 -218 -242 -295 -223 -314 6 -6 17 1 32 19 12 15 61 71 108 123 113 123
153 169 179 203 l21 28 12 -36 c11 -33 9 -40 -18 -82 -41 -63 -165 -199 -236
-258 -125 -106 -119 -100 -104 -113 11 -9 27 -3 75 28 75 50 279 252 341 340
25 36 56 78 69 93 l23 29 1 -39 c1 -21 3 -55 5 -76 3 -37 -1 -43 -95 -135
-220 -218 -291 -319 -208 -299 23 6 109 90 207 202 51 58 89 94 100 95 3 0 7
-25 8 -56 1 -30 3 -60 5 -66 1 -5 -15 -20 -35 -32 -65 -37 -152 -116 -185
-169 -45 -69 -45 -110 -1 -70 18 16 19 16 25 -5 7 -28 41 -29 76 -2 14 11 27
16 29 12 6 -16 91 -72 110 -72 16 0 18 -8 18 -64 l0 -65 -27 9 c-16 4 -103 31
-196 59 -92 28 -216 60 -275 70 -59 11 -168 31 -242 45 -366 67 -558 87 -920
93 -298 5 -375 1 -649 -33 -52 -7 -53 -7 -42 14 13 25 158 142 276 223 44 31
107 75 140 98 33 24 105 72 160 108 55 36 164 109 242 162 326 220 304 202
278 231 -18 19 -18 20 3 20 31 0 72 21 72 37 0 29 -52 9 -171 -65 -68 -43
-147 -93 -175 -112 -28 -19 -64 -42 -80 -51 -87 -49 -210 -129 -289 -188 -49
-37 -133 -95 -185 -131 -52 -35 -106 -72 -120 -82 -14 -11 -57 -43 -97 -71
-105 -77 -147 -117 -134 -130 16 -16 49 3 147 89 49 42 111 91 139 109 27 17
100 63 160 102 61 39 131 83 157 99 25 16 77 50 115 75 121 81 185 123 222
147 l36 23 -30 -26 c-46 -39 -257 -184 -348 -239 -45 -27 -119 -74 -164 -103
-45 -29 -85 -53 -88 -53 -5 0 -144 -98 -155 -110 -3 -3 -37 -34 -75 -70 -39
-36 -80 -78 -93 -94 -19 -26 -35 -33 -111 -48 -84 -17 -436 -133 -555 -183
-17 -8 -19 -5 -12 25 3 19 9 101 13 182 l6 149 22 -21 c12 -11 24 -20 27 -20
3 0 8 34 12 76 7 84 12 96 57 114 38 16 44 9 24 -30 -16 -32 -16 -32 7 -25 32
10 75 43 176 138 48 45 105 98 127 116 22 19 76 67 120 107 174 160 446 392
566 483 507 386 620 479 591 489 -12 4 -207 -124 -337 -220 -290 -214 -759
-580 -846 -659 -14 -13 -52 -46 -84 -74 -56 -48 -125 -117 -151 -153 -21 -28
-28 -5 -8 26 21 32 187 191 274 262 30 25 118 101 195 169 151 135 172 153
285 258 41 38 135 119 208 179 74 60 182 149 240 197 197 162 236 186 303 187
29 0 38 -4 42 -21 5 -18 11 -20 34 -15 15 4 38 18 49 32 14 18 28 24 40 21 11
-4 44 -2 74 2 30 5 121 9 203 9 121 0 147 -2 147 -14z m-1690 -22 c0 -9 -72
-115 -98 -145 -14 -16 -16 -16 -29 3 -18 26 -31 25 -115 -5 -85 -31 -105 -31
-113 -4 -6 18 4 32 51 74 l59 52 97 6 c53 3 105 10 115 16 22 13 33 14 33 3z
m1865 -13 c22 -4 55 -9 73 -9 46 0 37 -17 -28 -57 l-53 -32 -46 41 c-25 22
-56 45 -68 51 -13 6 -23 14 -23 18 0 9 83 2 145 -12z m845 -28 c0 -4 -22 -8
-50 -8 -48 -1 -50 0 -50 28 l0 28 50 -21 c28 -11 50 -24 50 -27z m-2476 20 c3
-5 -13 -21 -35 -37 -22 -15 -52 -47 -66 -71 -14 -24 -27 -43 -29 -43 -2 0 -13
9 -24 20 -11 11 -27 20 -35 20 -10 0 -2 12 20 31 19 17 38 42 41 55 5 20 13
24 62 27 32 2 58 4 59 5 1 1 4 -2 7 -7z m567 -29 c-21 -39 -158 -171 -281
-272 -30 -25 -57 -47 -60 -50 -3 -3 -45 -41 -95 -85 -94 -83 -175 -157 -285
-260 -36 -34 -126 -115 -200 -182 -74 -67 -229 -212 -345 -323 l-210 -203 -6
33 c-15 71 14 129 64 130 13 0 16 6 12 23 -5 18 36 63 257 284 331 329 446
430 661 581 94 67 242 171 327 231 85 60 159 109 163 110 4 1 3 -7 -2 -17z
m-2375 -27 c-9 -14 -24 -25 -33 -25 -13 0 -10 7 12 30 33 35 45 32 21 -5z
m1164 18 c0 -18 -93 -113 -110 -113 -14 0 22 68 53 103 29 30 57 36 57 10z
m-316 -15 c-20 -32 -103 -126 -104 -117 0 3 16 26 34 50 23 29 32 47 26 55
-13 15 -2 24 27 24 16 0 22 -4 17 -12z m130 -42 c-48 -62 -180 -204 -191 -205
-28 -2 -9 24 94 129 100 102 140 134 97 76z m-822 -37 c-43 -10 -96 -10 -112
1 -13 9 -11 14 13 35 l28 25 49 -28 c48 -26 49 -27 22 -33z m1982 49 c-6 -15
-93 -84 -139 -111 -39 -23 41 52 100 93 48 34 46 33 39 18z m-1474 -48 c0 -5
-4 -10 -10 -10 -5 0 -10 5 -10 10 0 6 5 10 10 10 6 0 10 -4 10 -10z m2966 -5
c17 -13 13 -14 -45 -15 -35 0 -62 3 -58 6 5 5 46 17 78 23 3 1 14 -6 25 -14z
m-161 -67 l40 -12 -55 -6 c-70 -7 -90 -2 -64 17 22 16 29 16 79 1z m-1922 -35
c-52 -34 -136 -120 -131 -134 2 -6 31 12 63 40 121 103 74 46 -120 -147 -110
-109 -263 -264 -339 -345 -99 -105 -142 -144 -147 -135 -18 28 -8 65 34 117
323 409 418 514 502 557 28 15 74 39 104 55 64 34 88 28 34 -8z m-970 -3 c-18
-31 -40 -42 -29 -14 3 9 6 22 6 30 0 8 9 14 21 14 20 0 20 -1 2 -30z m591 14
c13 -5 10 -13 -17 -42 -76 -85 -201 -212 -209 -212 -5 0 -11 7 -15 15 -4 11
22 42 79 98 47 45 93 97 104 115 18 32 29 37 58 26z m106 -81 c-40 -43 -129
-140 -198 -216 -121 -132 -141 -146 -142 -98 0 20 92 130 206 247 100 103 154
144 187 144 13 0 -2 -22 -53 -77z m-855 47 c-3 -10 -6 -42 -7 -70 0 -44 -10
-65 -20 -42 -5 11 -77 52 -92 52 -8 0 -19 6 -25 14 -9 11 -4 15 26 20 21 3 54
14 73 25 46 25 53 25 45 1z m3459 -146 c-15 -63 -32 -114 -37 -114 -4 0 -6 8
-3 18 2 9 17 71 33 137 15 66 29 109 31 96 2 -13 -9 -75 -24 -137z m-3242 104
c-7 -7 -12 -8 -12 -2 0 14 12 26 19 19 2 -3 -1 -11 -7 -17z m3558 4 c0 -18
-38 -48 -48 -38 -3 3 0 17 6 31 13 29 42 34 42 7z m-3307 -33 c-31 -47 -93
-119 -104 -119 -6 0 18 34 52 75 65 79 84 95 52 44z m-154 -58 c-47 -56 -61
-54 -38 6 6 15 18 36 27 46 14 15 18 16 30 3 13 -12 10 -19 -19 -55z m-359
-22 c30 -16 40 -27 40 -45 0 -13 -1 -24 -3 -24 -2 0 -25 20 -50 45 -52 49 -49
56 13 24z m190 -23 c-14 -14 -24 0 -16 21 6 15 8 15 16 3 6 -9 5 -19 0 -24z
m190 -46 c0 -30 -28 -80 -45 -80 -21 0 -19 29 5 68 22 36 40 42 40 12z m148
-23 c5 -27 -27 -60 -45 -46 -7 6 -13 19 -13 28 0 39 51 54 58 18z m2897 -66
c3 -5 1 -12 -5 -16 -5 -3 -10 1 -10 9 0 18 6 21 15 7z m-2970 -21 c18 -20 18
-21 -2 -48 -40 -54 -86 -14 -49 44 20 29 28 30 51 4z m-181 -25 c13 -19 14
-30 6 -45 -18 -33 -30 -23 -30 25 0 25 2 45 4 45 2 0 11 -11 20 -25z m3192
-80 c-8 -47 -14 -64 -19 -52 -4 10 -7 27 -7 38 0 22 28 94 34 88 2 -2 -1 -35
-8 -74z m-2927 11 c8 -10 6 -21 -12 -46 -12 -19 -27 -35 -34 -37 -21 -7 -26
43 -8 71 19 29 37 33 54 12z m-179 -31 c10 -12 10 -21 2 -40 -17 -37 -42 -32
-42 8 0 48 16 61 40 32z m97 -85 c4 -24 -30 -62 -50 -54 -22 8 -22 32 0 56 19
21 47 20 50 -2z m3036 -47 c-6 -57 -9 -60 -38 -39 -19 13 -18 15 9 55 16 23
30 40 31 39 2 -2 0 -27 -2 -55z m-3113 -58 c11 -13 10 -21 -7 -43 -32 -43 -53
-41 -53 6 0 50 33 70 60 37z m3110 -98 c-1 -40 -6 -58 -25 -79 -30 -35 -35
-35 -35 2 0 38 39 142 51 135 5 -4 9 -30 9 -58z m-3037 1 c7 -26 -8 -58 -29
-58 -23 0 -28 28 -10 55 20 31 32 32 39 3z m-153 -58 c0 -5 -4 -10 -10 -10 -5
0 -10 5 -10 10 0 6 5 10 10 10 6 0 10 -4 10 -10z m750 -30 c0 -5 -5 -10 -11
-10 -5 0 -7 5 -4 10 3 6 8 10 11 10 2 0 4 -4 4 -10z m-680 -19 c10 -20 -4 -71
-20 -71 -9 0 -20 37 -20 68 0 27 25 29 40 3z m-80 -139 c0 -26 -7 -56 -15 -66
-14 -19 -15 -19 -15 6 0 50 13 117 21 112 5 -3 9 -26 9 -52z m155 8 c7 -28
-29 -85 -46 -75 -15 10 -10 55 8 86 19 31 28 28 38 -11z m290 -39 c-3 -6 -11
-11 -17 -11 -6 0 -6 6 2 15 14 17 26 13 15 -4z m-603 -63 c-7 -7 -12 -8 -12
-2 0 6 3 14 7 17 3 4 9 5 12 2 2 -3 -1 -11 -7 -17z m228 -43 c0 -8 -4 -15 -10
-15 -5 0 -10 7 -10 15 0 8 5 15 10 15 6 0 10 -7 10 -15z m-76 -27 c10 -39 7
-93 -7 -113 -19 -25 -23 -10 -19 68 4 67 15 86 26 45z m162 -44 c-4 -13 -10
-24 -15 -24 -17 0 -19 39 -3 62 15 21 17 21 20 5 2 -10 1 -29 -2 -43z m-25
-67 c13 -19 14 -34 5 -100 -6 -45 -14 -76 -21 -74 -12 4 -20 197 -8 197 4 0
15 -11 24 -23z m3109 -60 c0 -16 -9 -28 -25 -35 -36 -17 -37 -16 -20 17 12 24
22 34 43 40 1 1 2 -10 2 -22z m-3230 -187 c0 -157 0 -160 -21 -160 -21 0 -21
2 -15 143 8 150 12 177 27 177 5 0 9 -68 9 -160z m3247 -7 c-10 -10 -67 38
-67 57 0 10 12 27 28 38 l27 21 9 -55 c4 -30 6 -57 3 -61z m-167 98 c0 -5 -7
-11 -15 -15 -15 -5 -20 5 -8 17 9 10 23 9 23 -2z m-2968 -91 c20 0 20 5 -7
-99 -20 -78 -35 -63 -35 35 0 68 3 85 12 76 7 -7 20 -12 30 -12z m-289 -200
c-4 -4 -20 -10 -35 -14 l-26 -6 18 48 c10 26 24 61 32 77 12 29 13 28 16 -34
2 -35 -1 -67 -5 -71z m1602 84 c-11 -8 -54 -35 -95 -60 -77 -46 -244 -164
-411 -290 -201 -151 -243 -154 -67 -5 141 120 372 275 491 331 86 41 115 49
82 24z m-445 1 c0 -11 -109 -54 -425 -166 -60 -22 -146 -48 -189 -59 -138 -35
-172 -56 -334 -209 -183 -172 -228 -232 -188 -247 10 -4 53 34 123 106 132
137 267 250 299 250 4 0 -23 -31 -62 -68 -75 -75 -187 -198 -249 -277 -22 -27
-55 -65 -73 -83 -32 -32 -35 -33 -85 -27 -29 4 -53 9 -55 10 -2 2 3 69 10 150
l13 147 135 62 c128 60 161 86 126 99 -9 4 -48 -7 -87 -23 -39 -17 -74 -30
-76 -30 -15 0 17 24 70 54 34 19 67 44 74 54 7 13 28 22 58 26 25 4 71 16 103
27 31 11 104 31 162 45 58 13 137 33 175 44 39 11 117 31 175 45 58 13 146 36
195 49 99 27 105 28 105 21z m160 1 c0 -2 -30 -26 -67 -52 -36 -26 -93 -76
-127 -112 -144 -152 -315 -307 -413 -373 -27 -18 -80 -56 -120 -86 -86 -64
-166 -103 -211 -103 -29 0 -31 2 -20 19 21 34 551 431 628 471 19 10 78 59
130 110 52 51 113 101 135 111 38 18 65 24 65 15z m630 -4 c0 -4 -44 -37 -97
-72 -54 -36 -161 -110 -238 -164 -198 -141 -395 -256 -395 -232 0 5 187 157
250 202 98 71 263 171 365 222 106 53 115 57 115 44z m229 -43 c-9 -5 -15 -4
-18 2 -2 6 3 15 10 20 9 5 15 4 18 -2 2 -6 -3 -15 -10 -20z m546 -24 c368 -62
607 -127 792 -215 l102 -48 -6 -204 c-3 -112 -9 -212 -13 -224 -7 -16 -28 -25
-107 -43 -153 -36 -476 -101 -480 -97 -2 1 34 15 79 30 46 15 126 53 178 85
52 32 111 66 130 76 19 10 37 19 39 21 5 5 -30 44 -40 44 -4 0 -69 -33 -146
-74 -76 -41 -163 -81 -193 -90 -30 -9 -102 -30 -160 -46 -116 -34 -514 -111
-564 -109 -36 1 -46 -2 176 50 69 17 134 37 145 45 16 14 14 14 -27 9 -25 -4
-110 -19 -190 -35 -272 -54 -548 -88 -890 -112 -143 -9 -201 -9 -314 2 -111
11 -133 16 -110 23 57 18 212 77 374 142 239 97 558 209 740 261 354 101 651
172 900 215 145 25 170 33 170 54 0 19 -29 32 -39 18 -3 -6 -110 -31 -236 -57
-571 -114 -985 -232 -1615 -458 -168 -61 -336 -118 -375 -128 -80 -21 -183
-29 -187 -16 -6 20 538 280 783 375 377 145 558 194 1064 292 59 11 80 23 71
38 -17 27 -279 -3 -501 -58 -310 -76 -861 -283 -1246 -468 -91 -44 -199 -93
-240 -109 -41 -16 -76 -32 -77 -37 -4 -7 -38 -4 -101 9 -21 4 -18 8 30 37 30
18 97 60 149 94 110 70 165 99 281 147 130 53 508 240 567 280 56 38 63 41 61
29 -1 -5 -1 -11 0 -15 0 -4 70 26 154 66 83 40 204 96 267 125 63 28 135 67
160 86 l45 35 100 -6 c55 -3 190 -21 300 -39z m-660 16 c-15 -13 -168 -117
-185 -125 -37 -18 64 63 121 97 63 36 82 45 64 28z m-1908 -43 c-3 -8 -6 -5
-6 6 -1 11 2 17 5 13 3 -3 4 -12 1 -19z m1408 -16 c-54 -48 -214 -174 -265
-209 -125 -84 -202 -141 -239 -176 -70 -67 -252 -179 -271 -167 -35 22 47 100
235 224 55 36 139 93 187 128 49 35 94 63 100 64 7 0 20 2 29 2 8 1 60 33 115
72 54 38 103 70 109 70 5 0 5 -3 0 -8z m-597 -34 c-2 -6 -25 -16 -50 -23 -26
-6 -84 -33 -130 -60 -46 -27 -109 -61 -141 -77 -32 -15 -76 -39 -97 -53 -45
-28 -49 -24 -21 21 35 57 92 86 386 191 41 15 57 15 53 1z m-1008 -78 c-6 -11
-18 -20 -27 -20 -14 0 -14 2 2 20 10 11 22 20 27 20 5 0 4 -9 -2 -20z m-155
-72 c-3 -34 -8 -64 -9 -66 -2 -2 -15 17 -29 42 l-25 46 26 19 c15 11 31 21 35
21 4 0 5 -28 2 -62z m800 -104 c-72 -61 -200 -143 -209 -133 -5 5 -8 10 -5 12
2 1 31 23 64 47 54 40 172 110 185 109 3 0 -13 -16 -35 -35z m-305 -246 c-25
-22 -69 -56 -97 -76 -29 -19 -50 -38 -47 -43 10 -17 92 -32 184 -33 83 -1 102
2 150 25 30 14 82 47 115 72 l60 45 3 -29 c2 -16 12 -35 23 -42 10 -6 19 -15
19 -19 0 -8 -184 -102 -232 -117 -29 -10 -49 -9 -101 3 -76 18 -238 73 -250
85 -5 5 12 28 39 52 145 134 155 142 168 129 8 -9 0 -22 -34 -52z m-125 -279
c18 -7 18 -8 -5 -8 -14 0 -38 6 -55 14 l-30 15 35 -6 c19 -4 44 -10 55 -15z"/>
<path d="M4391 5600 c-27 -22 -153 -144 -279 -272 -252 -256 -447 -452 -589
-590 -51 -50 -93 -95 -93 -99 0 -15 34 4 100 56 94 74 126 81 82 17 -30 -43
-34 -52 -23 -52 5 0 62 60 127 133 64 72 259 284 433 470 174 186 317 347 319
358 5 30 -21 23 -77 -21z"/>
<path d="M6326 5282 c-3 -3 -6 -15 -6 -26 0 -69 -162 -324 -326 -511 -84 -97
-103 -135 -67 -135 53 0 299 324 403 529 45 90 51 136 21 144 -11 3 -22 2 -25
-1z"/>
<path d="M5540 5071 c-105 -110 -310 -329 -343 -367 -38 -42 -48 -74 -24 -74
13 0 197 186 248 251 15 19 50 61 78 94 29 33 63 73 76 89 24 27 33 57 18 55
-5 0 -28 -22 -53 -48z"/>
<path d="M5965 5014 c-15 -26 -43 -64 -62 -84 -57 -64 -18 -54 54 13 37 35 79
70 92 77 24 12 24 13 6 26 -36 26 -61 17 -90 -32z"/>
<path d="M5594 4996 c-17 -12 -46 -40 -65 -62 -19 -21 -36 -41 -39 -44 -3 -3
-22 -26 -43 -52 -31 -38 -35 -48 -21 -48 10 0 38 21 62 48 71 76 142 162 142
173 0 11 1 12 -36 -15z"/>
<path d="M1810 5610 c-9 -6 -10 -10 -3 -10 6 0 15 5 18 10 8 12 4 12 -15 0z"/>
<path d="M1731 5156 c-37 -27 -107 -106 -94 -106 14 1 145 130 131 130 -2 0
-19 -11 -37 -24z"/>
<path d="M4375 3895 c-27 -13 -43 -24 -35 -24 8 -1 38 10 65 23 28 14 43 24
35 24 -8 0 -37 -10 -65 -23z"/>
<path d="M4120 3313 c-80 -58 -166 -119 -191 -136 -25 -18 -91 -68 -147 -112
-121 -96 -250 -188 -433 -310 -121 -80 -295 -218 -608 -480 -61 -52 -97 -89
-99 -104 -3 -20 0 -22 19 -16 31 10 116 61 162 97 20 17 61 43 90 58 28 16 99
66 157 110 161 124 435 324 530 387 147 96 381 255 480 324 52 37 139 98 194
135 54 37 101 74 104 82 5 14 -22 42 -39 42 -5 0 -34 -22 -66 -48 -50 -41
-147 -110 -446 -317 -32 -22 -81 -57 -110 -78 -61 -44 -87 -60 -87 -53 0 3 51
43 113 89 61 46 119 90 127 98 17 16 101 79 180 134 158 111 230 169 230 186
0 11 -3 19 -7 18 -5 0 -73 -48 -153 -106z m-585 -498 c-28 -19 -84 -61 -125
-93 -101 -77 -276 -202 -284 -202 -23 0 10 28 122 102 70 47 170 117 222 157
52 39 99 71 105 71 5 0 -13 -16 -40 -35z m-440 -345 c-16 -16 -33 -30 -39 -30
-9 0 53 59 63 60 3 0 -8 -13 -24 -30z m-55 -40 c0 -9 -31 -30 -44 -30 -3 0 2
9 11 20 19 21 33 26 33 10z"/>
<path d="M3683 3272 c-21 -21 -69 -66 -108 -99 -38 -33 -90 -80 -115 -104 -25
-24 -70 -64 -100 -89 -30 -24 -89 -74 -130 -110 -91 -80 -391 -329 -483 -402
-12 -9 -19 -20 -15 -23 8 -8 73 33 155 98 35 27 66 48 68 45 7 -7 -76 -73
-166 -131 -89 -58 -239 -190 -239 -211 0 -7 -13 -25 -30 -41 -61 -58 -21 -63
42 -6 59 54 192 168 253 216 28 22 100 85 160 140 123 112 309 274 370 321
153 118 229 173 304 222 109 71 181 130 181 149 0 10 -5 13 -17 8 -47 -19 -52
-18 -55 16 -4 48 -30 48 -75 1z"/>
<path d="M4741 2713 c-1 -6 -8 -18 -16 -27 -17 -17 -11 -42 12 -50 22 -9 24
-5 14 45 -5 24 -9 39 -10 32z"/>
<path d="M5046 2194 c-8 -21 -1 -28 19 -20 9 3 15 11 13 18 -7 19 -25 20 -32
2z"/>
<path d="M2554 2177 c-7 -20 13 -67 30 -67 34 0 30 52 -5 70 -14 8 -21 7 -25
-3z"/>
<path d="M7078 3953 c-164 -166 -220 -228 -308 -333 -25 -30 -64 -75 -86 -101
-57 -64 -106 -137 -102 -150 6 -17 78 58 290 302 45 53 151 170 234 260 165
180 172 189 151 189 -8 0 -88 -75 -179 -167z"/>
<path d="M6817 3876 c-81 -85 -147 -160 -147 -166 0 -8 -10 -11 -30 -7 -37 8
-60 0 -60 -21 0 -8 -21 -38 -47 -66 -88 -95 -130 -146 -211 -257 -15 -20 -9
-39 12 -39 7 0 42 32 77 72 35 40 93 104 129 143 36 39 77 85 91 101 14 16 55
54 90 84 97 83 274 270 274 288 0 43 -39 14 -178 -132z"/>
</g>
</svg>
